<svg width="138" height="66" viewBox="0 0 138 66" fill="none" xmlns="http://www.w3.org/2000/svg">
<path d="M0 9.10617C0 15.3406 0.5 50.5111 0.5 60.5111C0.499999 63.6283 1.78127 65.2162 6.67977 65.2162C12.6916 65.2162 14.6955 64.1772 14.6955 60.6146C14.6955 45.5111 4 34.0111 21.8206 48.7395C31.1139 56.4202 39.5 64.6224 42.3052 64.6224C47.8702 64.6225 48.5397 52.4504 42.3052 48.1457C38.539 45.5453 37.5925 44.5955 21.8206 36.8643C16 34.0111 14.7732 32.0906 16 30.5111C17.5 28.5799 22.3281 31.0111 25 31.0111C34.322 31.0111 37 15.8706 37 12.0111C37 6.35874 31 3.35725 27 1.51111C23 -0.335034 16 0.0110977 9.797 0.0513761C3.59399 0.0916546 0 2.87172 0 9.10617Z" fill="white"/>
<path d="M101.409 4.80143C101.409 3.02015 100.073 2.27796 92.2797 1.98108C86.4906 1.98108 83.9968 3.46547 83.8187 5.24674C83.596 7.47333 83.8187 53.7864 83.8187 56.7552C83.8187 59.5283 85.1546 64.474 88.0492 64.474H101.409C105.417 64.474 104.081 44.0959 111.651 44.0959C118.108 44.0959 119.667 64.5806 123.007 64.4321C126.347 64.2837 131.131 64.474 133.917 64.474C136.703 64.474 137.479 56.6067 137.479 54.5286C137.479 45.9191 137.306 6.53764 137.479 4.80143C137.702 2.57484 130.354 1.98108 126.792 1.98108C123.229 1.98108 119.221 3.46547 119.221 5.24674C119.221 7.02802 126.792 31.0752 126.792 34.3408C126.792 36.9033 129.909 46.9582 126.792 47.7004C123.675 48.4426 116.995 32.708 116.995 29.5908C116.995 26.4736 113.432 26.0282 110.315 26.1767L110.222 26.1811C107.123 26.3284 103.413 26.5047 103.413 29.5908C103.413 32.708 99.8501 47.7004 96.7329 47.7004C93.6157 47.7004 94.729 35.3799 94.729 33.7471C94.729 32.1143 101.409 6.5827 101.409 4.80143Z" fill="white"/>
<path d="M74.3761 2.17382L30.5 1.51111C34.0625 3.53978 37.3867 5.50325 38.5 9.51111C39.4722 13.0111 39 15.5111 37 22.0111C35.2492 27.7011 32 30.5111 28.5002 32.5111V37.7549C29.094 37.7549 34.15 40.7298 37 42.5111C40.5625 44.7377 43 45.5111 46.5 50.5111C48.6103 53.5258 49.0591 61.2578 47.8716 63.1381H74.2704C78.1364 63.1381 81.2704 60.0041 81.2704 56.1381V9.17302C81.2704 5.34825 78.2005 2.23159 74.3761 2.17382Z" fill="white"/>
</svg>
