<svg width="309" height="220" viewBox="0 0 309 220" fill="none" xmlns="http://www.w3.org/2000/svg">
<path d="M0 30.6355C0 51.6355 1.5 170.635 0 204.135C0 214.635 4 219.635 15 219.635C28.5 219.635 33 216.135 33 204.135C33 192.135 22 161.135 49 164.135C76 167.135 63 216.635 95 217.635C107.494 218.026 109 176.635 95 162.135C86.5427 153.376 86 144.635 49 124.135C15.3917 105.515 23.5 65.109 23.5 32.1356C23.5 16.6356 112 33.6355 55 99.1355C74.1161 111.932 101 60.1356 101 47.1356C101 28.0961 87 16.1356 74 7.13556C61 -1.86444 35 1.63554 22 0.135545C9 -1.36446 0 9.63555 0 30.6355Z" fill="#17222C"/>
<path d="M227.722 16.1356C227.722 10.1356 224.722 7.63556 207.222 6.63556C194.222 6.63556 188.622 11.6356 188.222 17.6356C187.722 25.1356 188.222 181.136 188.222 191.136C188.222 200.476 191.222 217.136 197.722 217.136H227.722C236.722 217.136 233.722 148.494 250.722 148.494C265.222 148.494 268.722 217.494 276.222 216.994C283.722 216.494 294.467 217.136 300.722 217.136C306.978 217.136 308.722 190.636 308.722 183.636C308.722 154.636 308.332 21.9838 308.722 16.1356C309.222 8.63556 292.722 6.63556 284.722 6.63556C276.722 6.63556 267.722 11.6356 267.722 17.6356C267.722 23.6356 284.722 104.636 284.722 115.636C284.722 124.267 291.722 158.136 284.722 160.636C277.722 163.136 262.722 110.136 262.722 99.6356C262.722 89.1356 254.722 87.6356 247.722 88.1356L247.512 88.1505C240.553 88.6465 232.222 89.2403 232.222 99.6356C232.222 110.136 224.222 160.636 217.222 160.636C210.222 160.636 212.722 119.136 212.722 113.636C212.722 108.136 227.722 22.1356 227.722 16.1356Z" fill="#17222C"/>
<path d="M175.5 7.63556H83.5C91.5 14.4689 103 24.6356 105.5 38.1356C107.594 49.4433 105 59.6356 94.5 79.1356C86.1 94.7356 70.6667 103.302 64 105.636V127.136C65.3333 127.136 77.1 135.136 83.5 141.136C91.5 148.636 107.5 168.636 109.5 184.136C111.07 196.305 110.167 206.302 107.5 212.636H175.5C179.366 212.636 182.5 209.502 182.5 205.636V14.6356C182.5 10.7696 179.366 7.63556 175.5 7.63556Z" fill="#17222C"/>
</svg>
