<svg width="44" height="44" viewBox="0 0 44 44" fill="none" xmlns="http://www.w3.org/2000/svg">
<path d="M21.8711 0.000243905C18.7907 0.000243905 15.9617 1.16046 13.8368 3.28425C11.712 5.3982 10.4295 8.45606 10.4295 11.7892C10.4295 15.3289 11.9508 18.4261 14.3272 20.5892L16.0246 22.064L13.5602 22.5163C6.98443 23.6864 3.82855 26.1445 2.02429 29.9102C0.301757 33.4204 0.0628661 38.2481 0 44H44C43.9749 38.2284 43.9371 33.2532 42.3655 29.6939C40.6807 25.82 37.6002 23.3717 30.5466 22.2803L28.0446 21.9165L29.6665 20.3729C31.892 18.2196 33.2876 15.2011 33.2876 11.7696C33.2876 8.4364 31.9926 5.38837 29.8677 3.28425C27.7554 1.15063 24.9264 -0.0194208 21.8711 0.000243905Z" fill="#495CA8"/>
</svg>
