<svg width="47" height="56" viewBox="0 0 47 56" fill="none" xmlns="http://www.w3.org/2000/svg">
<path d="M26.7971 3.94099e-05C26.1076 -0.00311441 25.2464 0.182304 24.302 0.815434C16.8775 5.94552 9.32453 10.8675 1.65877 15.6418C0.296842 16.5119 0.356927 17.8232 1.79456 18.5683L18.9855 27.4727C19.7044 27.8453 21.9783 27.7429 23.3402 26.873L46.0168 12.3875C47.3786 11.5173 47.3186 10.2063 45.8814 9.46125C39.9171 6.37181 34.4279 3.53259 28.4464 0.411745C28.4464 0.411745 27.805 0.00450733 26.7971 3.94099e-05ZM33.161 22.8483L24.3833 28.4561C22.4388 29.6979 19.4249 29.8331 17.3734 28.77L12.7235 26.3621L1.07554 31.7991C-0.39093 32.4828 -0.351808 33.5073 1.16367 34.0796L17.3521 40.2055V40.2063C18.8676 40.7803 21.2902 40.6873 22.7567 40.0046L45.0538 29.5975C46.5206 28.915 46.4798 27.8897 44.9652 27.3171L33.1611 22.8482L33.161 22.8483ZM45.6605 31.4023L23.5769 41.71C21.635 42.6141 18.6699 42.7263 16.6638 41.9673L0.508875 35.8538C-0.345666 36.5058 -0.121616 37.3153 1.1634 37.8002L17.3519 43.9271H17.3521C18.8675 44.5005 21.2902 44.4085 22.7567 43.7257L45.0538 33.319C46.2451 32.7647 46.4422 31.9836 45.6604 31.4023H45.6605ZM45.6605 35.1235L23.5769 45.4313C21.635 46.3346 18.6699 46.4469 16.6638 45.6887L0.508875 39.575C-0.345666 40.2272 -0.121616 41.0369 1.1634 41.5218L17.3519 47.6488H17.3521C18.8675 48.222 21.2902 48.1298 22.7567 47.4472L45.0538 37.0396C46.2451 36.485 46.4422 35.7038 45.6604 35.1236L45.6605 35.1235ZM45.6603 38.845L23.5767 49.152C21.6347 50.0561 18.6697 50.1684 16.6638 49.4094L0.508875 43.2968C-0.345666 43.9486 -0.121483 44.7579 1.1634 45.2428L17.3519 51.3695V51.3693C18.8674 51.9435 21.29 51.8506 22.7564 51.1678L45.0538 40.7611C46.2451 40.2066 46.4419 39.4255 45.66 38.8452L45.6603 38.845ZM45.1434 42.8074L23.5767 52.8734C21.6347 53.7775 18.6697 53.8901 16.6638 53.1309L1.05819 47.225C-0.390929 47.9085 -0.346467 48.9266 1.16353 49.4969L17.3517 55.6232H17.352C18.8675 56.197 21.2898 56.1042 22.7563 55.4217L45.054 45.015C46.4605 44.3605 46.4805 43.3903 45.1434 42.8073V42.8074Z" fill="#495CA8"/>
</svg>
