<svg width="84" height="56" viewBox="0 0 84 56" fill="none" xmlns="http://www.w3.org/2000/svg">
<path d="M29.5452 0.00016886C29.3484 0.00016886 29.1507 0.00512216 28.9516 0.0156886C25.7706 0.183265 22.5464 1.91995 21.4003 4.46299C14.5901 19.5749 11.1896 25.7386 9.10789 41.2599C12.0327 43.4871 15.43 45.6268 19.1517 47.5543L32.4247 15.1176L35.9601 16.1029L22.4368 49.1587C26.3364 50.9545 30.5178 52.4994 34.8292 53.6627L49.9012 20.39L53.3991 21.4681L38.4209 54.5347C42.3093 55.3761 46.2571 55.8886 50.1697 56L66.0229 26.54L69.4395 27.7938L54.2739 55.9691C58.6352 55.7649 62.9096 55.0168 66.9535 53.6115C75.6115 44.7218 81.4711 35.4861 83.843 25.1003C84.8608 20.644 80.8925 16.3296 73.0057 16.0512L71.7755 16.0046L71.3382 15.0553C69.6492 11.3591 67.3906 10.087 65.0421 9.69452C62.6935 9.30224 59.9918 9.94795 57.9529 10.9123L55.3417 12.1456L55.1606 9.66909C54.9627 6.96211 53.0933 4.78263 50.301 3.78724C47.5087 2.79168 43.6923 2.92343 39.3454 5.42272L37.2591 6.61969L36.4971 4.61786C35.1945 1.18939 32.4982 -0.00247265 29.5454 3.85019e-06L29.5452 0.00016886ZM10.4443 20.4056C4.02084 27.8522 -0.659267 38.7673 0.0760783 48.6892C5.58067 52.295 10.9913 54.2519 16.0788 54.54C18.908 54.7002 21.6633 54.3609 24.3547 53.4771C17.27 50.6316 10.891 46.9502 5.84731 42.9883L5.17912 42.4671L5.27906 41.7084C6.43714 32.6877 8.06653 26.6018 10.4447 20.4056H10.4443Z" fill="#495CA8"/>
</svg>
