<svg width="102" height="68" viewBox="0 0 102 68" fill="none" xmlns="http://www.w3.org/2000/svg">
<path d="M49.496 44.1366C49.3703 41.5334 47.0692 39.5305 44.3946 39.5305H43.0837C44.5905 38.622 45.5647 36.9554 45.4313 35.0734C45.2498 32.5168 42.9754 30.5771 40.3453 30.5771H36.7239C36.8733 32.2962 36.3026 34.6538 35.0335 36.0393C34.5237 36.596 33.9399 37.0189 33.3118 37.3209C33.0998 37.4228 33.1703 37.7304 33.4067 37.7304H34.7012C35.2378 37.7304 35.7567 37.9822 36.0345 38.4291C36.6363 39.3973 35.8881 40.5896 34.7811 40.5896H26.871C26.5882 40.5896 26.3113 40.6691 26.074 40.8183L26.072 40.8196C24.9817 41.5145 24.3067 42.6977 24.3067 44.0014C24.3067 45.3048 24.9817 46.4876 26.072 47.1828C26.3204 47.3356 26.6086 47.4171 26.9024 47.4171H36.5885C37.573 47.4171 38.2815 48.3621 37.9893 49.2655C37.7894 49.8834 37.1632 50.2763 36.4982 50.2763H26.9021C26.6086 50.2763 26.3207 50.3574 26.0723 50.5102C24.9821 51.2051 24.3064 52.3886 24.3064 53.692C24.3064 54.9954 24.9814 56.1786 26.0716 56.8738C26.2953 57.0233 26.5611 57.1038 26.8322 57.1038H33.5755C34.4438 57.1038 35.202 57.8908 35.0138 58.818C34.8761 59.4962 34.2288 59.963 33.5194 59.963H26.8961C26.6156 59.963 26.3374 60.0357 26.101 60.1832C24.9934 60.8758 24.3064 62.0681 24.3064 63.3833C24.3064 65.1854 25.6303 66.7595 27.4383 67.1162H36.4571C39.0872 67.1162 41.3616 65.1763 41.5428 62.6197C41.6762 60.738 40.702 59.0717 39.1959 58.1632H40.6789C43.309 58.1632 45.5834 56.2232 45.7647 53.6666C45.898 51.785 44.9238 50.1186 43.4177 49.2101H44.535C47.3577 49.2104 49.6304 46.916 49.496 44.1366Z" fill="white"/>
<path d="M24.3456 34.8411C24.5031 35.9418 25.145 36.9123 26.1008 37.5104C26.3365 37.658 26.6143 37.7306 26.8945 37.7306H27.7213C27.9627 37.7306 28.0299 37.4107 27.8082 37.3179C27.0336 36.9931 26.2991 36.5406 25.6478 35.9744L24.3456 34.8411Z" fill="white"/>
<path d="M21.372 34.3109C21.372 33.6779 21.469 33.0677 21.6385 32.4872L20.5763 31.5633C20.0601 31.1141 19.9805 30.3088 20.472 29.7719C20.9518 29.2491 21.7745 29.2041 22.3105 29.6706L27.3821 34.0815C29.0942 35.5703 31.6551 35.365 33.1205 33.7649C34.6132 32.1354 34.4675 29.6266 32.7955 28.1724L23.8998 20.4345C22.2753 19.0213 19.8104 19.1021 18.2879 20.6188L18.2494 20.6553C6.66274 31.3063 4.13057 33.9479 3.20182 35.0891C0.771954 38.0741 0 40.2854 0 43.4923V53.4233C0 60.974 6.30402 67.1166 14.053 67.1166C16.8894 67.1166 19.7194 67.1166 22.5475 67.1166C21.8093 66.0553 21.3717 64.7424 21.3717 63.3837C21.3717 61.5079 22.1674 59.7722 23.51 58.5382C22.1674 57.3039 21.3717 55.5682 21.3717 53.6924C21.3717 51.8166 22.1674 50.0809 23.51 48.8469C22.1674 47.6129 21.3717 45.8772 21.3717 44.0015C21.3717 42.1257 22.1674 40.39 23.51 39.156C22.1674 37.9217 21.372 36.1863 21.372 34.3109Z" fill="white"/>
<path d="M75.9272 37.4925L75.9282 37.4918C76.8684 36.8924 77.4989 35.9308 77.6544 34.8411L75.6227 36.5246C75.3438 36.7673 75.0567 36.9771 74.7638 37.1556C74.4927 37.3208 74.6214 37.7303 74.9407 37.7303H75.1523C75.4294 37.7306 75.7002 37.6472 75.9272 37.4925Z" fill="white"/>
<path d="M68.4238 57.1041H75.1361C75.4166 57.1041 75.6914 57.0246 75.9264 56.8751L75.9284 56.8738C77.019 56.1786 77.6936 54.9957 77.6936 53.6923C77.6936 52.3892 77.0186 51.2061 75.9284 50.5112L75.9264 50.5099C75.6874 50.3578 75.4079 50.2766 75.122 50.2766H65.4968C64.9609 50.2766 64.4417 50.0274 64.1615 49.5824C63.5544 48.6178 64.2996 47.4174 65.4116 47.4174H75.0605C75.3661 47.4174 75.6656 47.3366 75.9277 47.1832L75.9287 47.1828C77.0193 46.4876 77.694 45.3048 77.694 44.0017C77.694 42.6983 77.019 41.5154 75.9287 40.8203L75.9267 40.819C75.6864 40.6694 75.4069 40.5899 75.1217 40.5899H67.2193C66.1183 40.5899 65.3668 39.4077 65.9612 38.435C66.236 37.9854 66.7545 37.7304 67.2918 37.7304H68.8946C69.2259 37.7304 69.3406 37.3043 69.0524 37.1453C68.2985 36.7289 67.5827 36.1589 66.9368 35.4539C65.7563 34.1655 65.11 32.4617 65.2732 30.5771H61.6551C59.025 30.5771 56.7506 32.5168 56.569 35.0734C56.4353 36.9554 57.4099 38.622 58.9167 39.5305H57.6058C54.9312 39.5305 52.63 41.5334 52.5043 44.1366C52.3699 46.9157 54.6427 49.2101 57.4657 49.2101H58.583C57.0765 50.119 56.1023 51.785 56.236 53.6666C56.4176 56.2232 58.6917 58.1632 61.3218 58.1632H62.8049C61.2987 59.0717 60.3245 60.738 60.4579 62.6197C60.6394 65.1763 62.9135 67.1162 65.5436 67.1162H74.5624C76.3677 66.7602 77.6946 65.1883 77.6946 63.3833C77.6946 62.0802 77.0196 60.897 75.9294 60.2021C75.6897 60.0464 75.4079 59.963 75.12 59.963H68.4817C67.7726 59.963 67.1253 59.4965 66.9872 58.8189C66.7967 57.8928 67.5546 57.1041 68.4238 57.1041Z" fill="white"/>
<path d="M98.7975 35.0881C98.5685 34.6226 98.2629 34.1835 97.8717 33.7939L95.4432 31.3754L83.7115 20.6188C82.1886 19.1021 79.724 19.0216 78.0998 20.4344L69.2041 28.1724C67.5282 29.6305 67.3821 32.1311 68.8785 33.7645C70.3692 35.3921 72.9345 35.5449 74.6175 34.0815L79.6889 29.6706C80.2255 29.2038 81.0479 29.2497 81.5273 29.7719C81.9556 30.2394 81.9606 30.9287 81.5738 31.4034C81.4461 31.5597 80.5307 32.3396 80.3612 32.4872C80.531 33.0677 80.628 33.6779 80.628 34.3108C80.628 36.1866 79.8323 37.922 78.4896 39.1563C79.8323 40.3903 80.628 42.126 80.628 44.0018C80.628 45.8776 79.8323 47.6132 78.4896 48.8473C79.8326 50.0813 80.628 51.817 80.628 53.6927C80.628 55.5685 79.8323 57.3042 78.4896 58.5385C79.8326 59.7725 80.628 61.5082 80.628 63.384C80.628 64.7444 80.1897 66.0566 79.4522 67.117C82.2802 67.117 85.1119 67.117 87.947 67.117C95.696 67.117 102 60.9736 102 53.4233V43.4923C102 40.2844 100.791 37.349 98.7975 35.0881Z" fill="white"/>
<path d="M53.5071 23.9224V2.44326C53.5071 1.0936 52.3848 0 50.9997 0C49.6146 0 48.4922 1.0936 48.4922 2.44326V23.9224C48.4922 25.2721 49.6146 26.3657 50.9997 26.3657C52.3844 26.3657 53.5071 25.2718 53.5071 23.9224Z" fill="white"/>
<path d="M38.7121 24.9638C39.3022 26.1848 40.7969 26.7077 42.049 26.1324C43.3017 25.5571 43.8386 24.1015 43.2482 22.8809L35.5387 6.93977C34.9486 5.71912 33.4549 5.19561 32.2018 5.77124C30.9491 6.34655 30.4122 7.80208 31.0026 9.02273L38.7121 24.9638Z" fill="white"/>
<path d="M59.9507 26.1324C61.2028 26.7077 62.6975 26.1849 63.288 24.9639L70.9975 9.02277C71.5879 7.80212 71.051 6.34626 69.7983 5.77128C68.5459 5.195 67.0514 5.71916 66.4614 6.93981L58.7519 22.8809C58.1614 24.1016 58.698 25.5571 59.9507 26.1324Z" fill="white"/>
</svg>
